<?xml version="1.0" encoding="utf-8"?>
<!-- Generator: Adobe Illustrator 24.0.1, SVG Export Plug-In . SVG Version: 6.00 Build 0)  -->
<svg version="1.1" id="Layer_1" xmlns="http://www.w3.org/2000/svg" xmlns:xlink="http://www.w3.org/1999/xlink" x="0px" y="0px"
	 viewBox="0 0 512 512" style="enable-background:new 0 0 512 512;" xml:space="preserve">
<path d="M506.3,430.6L331.3,255L506.7,81.6c7.2-7.2,7.2-18.9,0-26.1L456.8,5.3c-3.5-3.5-8.1-5.3-13.1-5.3c-4.9,0-9.6,2-13.1,5.3
	L256.1,178.2L81.3,5.5C77.8,2,73.1,0.1,68.2,0.1c-4.9,0-9.6,2-13.1,5.3L5.4,55.6c-7.2,7.2-7.2,18.9,0,26.1l175.4,173.4L5.9,430.6
	c-3.5,3.5-5.5,8.1-5.5,13.1c0,4.9,1.9,9.6,5.5,13.1l49.9,50.1c3.6,3.6,8.3,5.5,13.1,5.5c4.7,0,9.5-1.7,13.1-5.5l174.2-175
	l174.3,174.8c3.6,3.6,8.3,5.5,13.1,5.5c4.7,0,9.5-1.7,13.1-5.5l49.9-50.1c3.5-3.5,5.5-8.1,5.5-13.1
	C511.8,438.8,509.8,434.1,506.3,430.6z"/>
</svg>
