{
	"asset":{
		"version":"2.0",
		"generator":"Created using the official Cinema 4D glTF Exporter 1.000x290161"
	},
	"nodes":[{
		"name":"Extrude.3",
		"mesh":0
	}],
	"scenes":[{
		"nodes":[0]
	}],
	"meshes":[{
		"primitives":[{
			"attributes":{
				"POSITION":1,
				"NORMAL":2,
				"TEXCOORD_0":3
			},
			"indices":0,
			"material":0
		}]
	}],
	"accessors":[{
		"byteOffset":0,
		"bufferView":0,
		"type":"SCALAR",
		"componentType":5123,
		"count":147744,
		"min":[0],
		"max":[47868]
	},
	{
		"byteOffset":0,
		"bufferView":1,
		"type":"VEC3",
		"componentType":5126,
		"count":47869,
		"min":[-9.039202690124512,
		-31.87266731262207,
		-5.101266384124756],
		"max":[19.28131866455078,
		40.512874603271487,
		0.10000000149011612]
	},
	{
		"byteOffset":12,
		"bufferView":1,
		"type":"VEC3",
		"componentType":5126,
		"count":47869,
		"min":[-1.0,
		-1.0,
		-1.0],
		"max":[1.0,
		1.0,
		1.0]
	},
	{
		"byteOffset":24,
		"bufferView":1,
		"type":"VEC2",
		"componentType":5126,
		"count":47869,
		"min":[0.0,
		0.0],
		"max":[1.0,
		1.0]
	}],
	"bufferViews":[{
		"buffer":0,
		"byteOffset":0,
		"byteLength":295488,
		"target":34963
	},
	{
		"buffer":0,
		"byteOffset":295488,
		"byteLength":1531808,
		"target":34962,
		"byteStride":32
	}],
	"buffers":[{
		"uri":"data:application/octet-stream;base64,",
		"byteLength":1827296
	}],
	"materials":[{
		"pbrMetallicRoughness":{
			"baseColorFactor":[1.0,
			1.0,
			1.0,
			1.0],
			"metallicFactor":0.0,
			"roughnessFactor":0.5
		},
		"emissiveFactor":[0.6199999999999997,
		0.6199999999999997,
		0.6199999999999997],
		"alphaMode":"OPAQUE",
		"doubleSided":true,
		"name":"Mat"
	}]
}